SplineFontDB: 3.2
FontName: Untitled1
FullName: Untitled1
FamilyName: Untitled1
Weight: Regular
Copyright: Copyright (c) 2020, Sebastian
UComments: "2020-5-20: Created with FontForge (http://fontforge.org)"
Version: 001.000
ItalicAngle: 0
UnderlinePosition: -0.8
UnderlineWidth: 0.4
Ascent: 6
Descent: 2
InvalidEm: 0
LayerCount: 2
Layer: 0 0 "Back" 1
Layer: 1 0 "Fore" 0
XUID: [1021 383 -2108585231 24349]
OS2Version: 0
OS2_WeightWidthSlopeOnly: 0
OS2_UseTypoMetrics: 1
CreationTime: 1590033200
ModificationTime: 1590036995
OS2TypoAscent: 0
OS2TypoAOffset: 1
OS2TypoDescent: 0
OS2TypoDOffset: 1
OS2TypoLinegap: 0
OS2WinAscent: 0
OS2WinAOffset: 1
OS2WinDescent: 0
OS2WinDOffset: 1
HheadAscent: 0
HheadAOffset: 1
HheadDescent: 0
HheadDOffset: 1
OS2Vendor: 'PfEd'
MarkAttachClasses: 1
DEI: 91125
Encoding: ISO8859-1
UnicodeInterp: none
NameList: AGL For New Fonts
DisplaySize: -48
AntiAlias: 1
FitToEm: 0
WinInfo: 0 30 19
BeginPrivate: 0
EndPrivate
BeginChars: 256 256

StartChar: A
Encoding: 65 65 65
Width: 4
Flags: HW
LayerCount: 2
Fore
SplineSet
1 5 m 1
 1 6 l 1
 2 6 l 1
 2 5 l 1
 1 5 l 1
2 5 m 1
 2 6 l 1
 3 6 l 1
 3 5 l 1
 2 5 l 1
0 4 m 1
 0 5 l 1
 1 5 l 1
 1 4 l 1
 0 4 l 1
3 4 m 1
 3 5 l 1
 4 5 l 1
 4 4 l 1
 3 4 l 1
0 3 m 1
 0 4 l 1
 1 4 l 1
 1 3 l 1
 0 3 l 1
3 3 m 1
 3 4 l 1
 4 4 l 1
 4 3 l 1
 3 3 l 1
0 2 m 1
 0 3 l 1
 1 3 l 1
 1 2 l 1
 0 2 l 1
3 2 m 1
 3 3 l 1
 4 3 l 1
 4 2 l 1
 3 2 l 1
0 1 m 1
 0 2 l 1
 1 2 l 1
 1 1 l 1
 0 1 l 1
1 1 m 1
 1 2 l 1
 2 2 l 1
 2 1 l 1
 1 1 l 1
2 1 m 1
 2 2 l 1
 3 2 l 1
 3 1 l 1
 2 1 l 1
3 1 m 1
 3 2 l 1
 4 2 l 1
 4 1 l 1
 3 1 l 1
0 0 m 1
 0 1 l 1
 1 1 l 1
 1 0 l 1
 0 0 l 1
3 0 m 1
 3 1 l 1
 4 1 l 1
 4 0 l 1
 3 0 l 1
1 5 m 1
 1 6 l 1
 2 6 l 1
 2 5 l 1
 1 5 l 1
2 5 m 1
 2 6 l 1
 3 6 l 1
 3 5 l 1
 2 5 l 1
0 4 m 1
 0 5 l 1
 1 5 l 1
 1 4 l 1
 0 4 l 1
3 4 m 1
 3 5 l 1
 4 5 l 1
 4 4 l 1
 3 4 l 1
0 3 m 1
 0 4 l 1
 1 4 l 1
 1 3 l 1
 0 3 l 1
3 3 m 1
 3 4 l 1
 4 4 l 1
 4 3 l 1
 3 3 l 1
0 2 m 1
 0 3 l 1
 1 3 l 1
 1 2 l 1
 0 2 l 1
3 2 m 1
 3 3 l 1
 4 3 l 1
 4 2 l 1
 3 2 l 1
0 1 m 1
 0 2 l 1
 1 2 l 1
 1 1 l 1
 0 1 l 1
1 1 m 1
 1 2 l 1
 2 2 l 1
 2 1 l 1
 1 1 l 1
2 1 m 1
 2 2 l 1
 3 2 l 1
 3 1 l 1
 2 1 l 1
3 1 m 1
 3 2 l 1
 4 2 l 1
 4 1 l 1
 3 1 l 1
0 0 m 1
 0 1 l 1
 1 1 l 1
 1 0 l 1
 0 0 l 1
3 0 m 1
 3 1 l 1
 4 1 l 1
 4 0 l 1
 3 0 l 1
1 5 m 1
 1 6 l 1
 2 6 l 1
 2 5 l 1
 1 5 l 1
2 5 m 1
 2 6 l 1
 3 6 l 1
 3 5 l 1
 2 5 l 1
0 4 m 1
 0 5 l 1
 1 5 l 1
 1 4 l 1
 0 4 l 1
3 4 m 1
 3 5 l 1
 4 5 l 1
 4 4 l 1
 3 4 l 1
0 3 m 1
 0 4 l 1
 1 4 l 1
 1 3 l 1
 0 3 l 1
3 3 m 1
 3 4 l 1
 4 4 l 1
 4 3 l 1
 3 3 l 1
0 2 m 1
 0 3 l 1
 1 3 l 1
 1 2 l 1
 0 2 l 1
3 2 m 1
 3 3 l 1
 4 3 l 1
 4 2 l 1
 3 2 l 1
0 1 m 1
 0 2 l 1
 1 2 l 1
 1 1 l 1
 0 1 l 1
1 1 m 1
 1 2 l 1
 2 2 l 1
 2 1 l 1
 1 1 l 1
2 1 m 1
 2 2 l 1
 3 2 l 1
 3 1 l 1
 2 1 l 1
3 1 m 1
 3 2 l 1
 4 2 l 1
 4 1 l 1
 3 1 l 1
0 0 m 1
 0 1 l 1
 1 1 l 1
 1 0 l 1
 0 0 l 1
3 0 m 1
 3 1 l 1
 4 1 l 1
 4 0 l 1
 3 0 l 1
1 5 m 1
 1 6 l 1
 2 6 l 1
 2 5 l 1
 1 5 l 1
2 5 m 1
 2 6 l 1
 3 6 l 1
 3 5 l 1
 2 5 l 1
0 4 m 1
 0 5 l 1
 1 5 l 1
 1 4 l 1
 0 4 l 1
3 4 m 1
 3 5 l 1
 4 5 l 1
 4 4 l 1
 3 4 l 1
0 3 m 1
 0 4 l 1
 1 4 l 1
 1 3 l 1
 0 3 l 1
3 3 m 1
 3 4 l 1
 4 4 l 1
 4 3 l 1
 3 3 l 1
0 2 m 1
 0 3 l 1
 1 3 l 1
 1 2 l 1
 0 2 l 1
3 2 m 1
 3 3 l 1
 4 3 l 1
 4 2 l 1
 3 2 l 1
0 1 m 1
 0 2 l 1
 1 2 l 1
 1 1 l 1
 0 1 l 1
1 1 m 1
 1 2 l 1
 2 2 l 1
 2 1 l 1
 1 1 l 1
2 1 m 1
 2 2 l 1
 3 2 l 1
 3 1 l 1
 2 1 l 1
3 1 m 1
 3 2 l 1
 4 2 l 1
 4 1 l 1
 3 1 l 1
0 0 m 1
 0 1 l 1
 1 1 l 1
 1 0 l 1
 0 0 l 1
3 0 m 1
 3 1 l 1
 4 1 l 1
 4 0 l 1
 3 0 l 1
1 5 m 1
 1 6 l 1
 2 6 l 1
 2 5 l 1
 1 5 l 1
2 5 m 1
 2 6 l 1
 3 6 l 1
 3 5 l 1
 2 5 l 1
0 4 m 1
 0 5 l 1
 1 5 l 1
 1 4 l 1
 0 4 l 1
3 4 m 1
 3 5 l 1
 4 5 l 1
 4 4 l 1
 3 4 l 1
0 3 m 1
 0 4 l 1
 1 4 l 1
 1 3 l 1
 0 3 l 1
3 3 m 1
 3 4 l 1
 4 4 l 1
 4 3 l 1
 3 3 l 1
0 2 m 1
 0 3 l 1
 1 3 l 1
 1 2 l 1
 0 2 l 1
3 2 m 1
 3 3 l 1
 4 3 l 1
 4 2 l 1
 3 2 l 1
0 1 m 1
 0 2 l 1
 1 2 l 1
 1 1 l 1
 0 1 l 1
1 1 m 1
 1 2 l 1
 2 2 l 1
 2 1 l 1
 1 1 l 1
2 1 m 1
 2 2 l 1
 3 2 l 1
 3 1 l 1
 2 1 l 1
3 1 m 1
 3 2 l 1
 4 2 l 1
 4 1 l 1
 3 1 l 1
0 0 m 1
 0 1 l 1
 1 1 l 1
 1 0 l 1
 0 0 l 1
3 0 m 1
 3 1 l 1
 4 1 l 1
 4 0 l 1
 3 0 l 1
1 5 m 1
 2 5 l 1
 2 6 l 1
 1 6 l 1
 1 5 l 1
2 5 m 1
 3 5 l 1
 3 6 l 1
 2 6 l 1
 2 5 l 1
0 4 m 1
 1 4 l 1
 1 5 l 1
 0 5 l 1
 0 4 l 1
3 4 m 1
 4 4 l 1
 4 5 l 1
 3 5 l 1
 3 4 l 1
0 3 m 1
 1 3 l 1
 1 4 l 1
 0 4 l 1
 0 3 l 1
3 3 m 1
 4 3 l 1
 4 4 l 1
 3 4 l 1
 3 3 l 1
0 2 m 1
 1 2 l 1
 1 3 l 1
 0 3 l 1
 0 2 l 1
3 2 m 1
 4 2 l 1
 4 3 l 1
 3 3 l 1
 3 2 l 1
0 1 m 1
 1 1 l 1
 1 2 l 1
 0 2 l 1
 0 1 l 1
1 1 m 1
 2 1 l 1
 2 2 l 1
 1 2 l 1
 1 1 l 1
2 1 m 1
 3 1 l 1
 3 2 l 1
 2 2 l 1
 2 1 l 1
3 1 m 1
 4 1 l 1
 4 2 l 1
 3 2 l 1
 3 1 l 1
0 0 m 1
 1 0 l 1
 1 1 l 1
 0 1 l 1
 0 0 l 1
3 0 m 1
 4 0 l 1
 4 1 l 1
 3 1 l 1
 3 0 l 1
EndSplineSet
EndChar

StartChar: B
Encoding: 66 66 66
Width: 4
Flags: HW
LayerCount: 2
Fore
SplineSet
0 5 m 1
 0 6 l 5
 1 6 l 1
 1 5 l 1
 0 5 l 1
1 5 m 1
 1 6 l 1
 2 6 l 1
 2 5 l 1
 1 5 l 1
2 5 m 1
 2 6 l 1
 3 6 l 1
 3 5 l 1
 2 5 l 1
0 4 m 1
 0 5 l 1
 1 5 l 1
 1 4 l 1
 0 4 l 1
3 4 m 1
 3 5 l 1
 4 5 l 1
 4 4 l 1
 3 4 l 1
0 3 m 1
 0 4 l 1
 1 4 l 1
 1 3 l 1
 0 3 l 1
3 3 m 1
 3 4 l 1
 4 4 l 1
 4 3 l 1
 3 3 l 1
0 2 m 1
 0 3 l 1
 1 3 l 1
 1 2 l 1
 0 2 l 1
1 2 m 1
 1 3 l 1
 2 3 l 1
 2 2 l 1
 1 2 l 1
2 2 m 1
 2 3 l 1
 3 3 l 1
 3 2 l 1
 2 2 l 1
0 1 m 1
 0 2 l 1
 1 2 l 1
 1 1 l 1
 0 1 l 1
3 1 m 1
 3 2 l 1
 4 2 l 1
 4 1 l 1
 3 1 l 1
0 0 m 1
 0 1 l 1
 1 1 l 1
 1 0 l 1
 0 0 l 1
1 0 m 1
 1 1 l 1
 2 1 l 1
 2 0 l 1
 1 0 l 1
2 0 m 1
 2 1 l 1
 3 1 l 1
 3 0 l 1
 2 0 l 1
0 5 m 1
 0 6 l 1
 1 6 l 1
 1 5 l 1
 0 5 l 1
1 5 m 1
 1 6 l 1
 2 6 l 1
 2 5 l 1
 1 5 l 1
2 5 m 1
 2 6 l 1
 3 6 l 1
 3 5 l 1
 2 5 l 1
0 4 m 1
 0 5 l 1
 1 5 l 1
 1 4 l 1
 0 4 l 1
3 4 m 1
 3 5 l 1
 4 5 l 1
 4 4 l 1
 3 4 l 1
0 3 m 1
 0 4 l 1
 1 4 l 1
 1 3 l 1
 0 3 l 1
3 3 m 1
 3 4 l 1
 4 4 l 1
 4 3 l 1
 3 3 l 1
0 2 m 1
 0 3 l 1
 1 3 l 1
 1 2 l 1
 0 2 l 1
1 2 m 1
 1 3 l 1
 2 3 l 1
 2 2 l 1
 1 2 l 1
2 2 m 1
 2 3 l 1
 3 3 l 1
 3 2 l 1
 2 2 l 1
0 1 m 1
 0 2 l 1
 1 2 l 1
 1 1 l 1
 0 1 l 1
3 1 m 1
 3 2 l 1
 4 2 l 1
 4 1 l 1
 3 1 l 1
0 0 m 1
 0 1 l 1
 1 1 l 1
 1 0 l 1
 0 0 l 1
1 0 m 1
 1 1 l 1
 2 1 l 1
 2 0 l 1
 1 0 l 1
2 0 m 1
 2 1 l 1
 3 1 l 1
 3 0 l 1
 2 0 l 1
0 5 m 1
 1 5 l 1
 1 6 l 1
 0 6 l 1
 0 5 l 1
1 5 m 1
 2 5 l 1
 2 6 l 1
 1 6 l 1
 1 5 l 1
2 5 m 1
 3 5 l 1
 3 6 l 1
 2 6 l 1
 2 5 l 1
0 4 m 1
 1 4 l 1
 1 5 l 1
 0 5 l 1
 0 4 l 1
3 4 m 1
 4 4 l 1
 4 5 l 1
 3 5 l 1
 3 4 l 1
0 3 m 1
 1 3 l 1
 1 4 l 1
 0 4 l 1
 0 3 l 1
3 3 m 1
 4 3 l 1
 4 4 l 1
 3 4 l 1
 3 3 l 1
0 2 m 1
 1 2 l 1
 1 3 l 1
 0 3 l 1
 0 2 l 1
1 2 m 1
 2 2 l 1
 2 3 l 1
 1 3 l 1
 1 2 l 1
2 2 m 1
 3 2 l 1
 3 3 l 1
 2 3 l 1
 2 2 l 1
0 1 m 1
 1 1 l 1
 1 2 l 1
 0 2 l 1
 0 1 l 1
3 1 m 1
 4 1 l 1
 4 2 l 1
 3 2 l 1
 3 1 l 1
0 0 m 1
 1 0 l 1
 1 1 l 1
 0 1 l 1
 0 0 l 1
1 0 m 1
 2 0 l 1
 2 1 l 1
 1 1 l 1
 1 0 l 1
2 0 m 1
 3 0 l 1
 3 1 l 1
 2 1 l 1
 2 0 l 1
EndSplineSet
EndChar

StartChar: C
Encoding: 67 67 67
Width: 4
Flags: HW
LayerCount: 2
Fore
SplineSet
2 5 m 1
 2 6 l 1
 3 6 l 1
 3 5 l 1
 2 5 l 1
3 5 m 1
 3 6 l 1
 4 6 l 1
 4 5 l 1
 3 5 l 1
1 4 m 1
 1 5 l 1
 2 5 l 1
 2 4 l 1
 1 4 l 1
0 3 m 1
 0 4 l 1
 1 4 l 1
 1 3 l 1
 0 3 l 1
0 2 m 1
 0 3 l 1
 1 3 l 1
 1 2 l 1
 0 2 l 1
0 1 m 1
 0 2 l 1
 1 2 l 1
 1 1 l 1
 0 1 l 1
1 0 m 1
 1 1 l 1
 2 1 l 1
 2 0 l 1
 1 0 l 1
2 0 m 1
 2 1 l 1
 3 1 l 1
 3 0 l 1
 2 0 l 1
3 0 m 1
 3 1 l 1
 4 1 l 1
 4 0 l 1
 3 0 l 1
2 5 m 1
 2 6 l 1
 3 6 l 1
 3 5 l 1
 2 5 l 1
3 5 m 1
 3 6 l 1
 4 6 l 1
 4 5 l 1
 3 5 l 1
1 4 m 1
 1 5 l 1
 2 5 l 1
 2 4 l 1
 1 4 l 1
0 3 m 1
 0 4 l 1
 1 4 l 1
 1 3 l 1
 0 3 l 1
0 2 m 1
 0 3 l 1
 1 3 l 1
 1 2 l 1
 0 2 l 1
0 1 m 1
 0 2 l 1
 1 2 l 1
 1 1 l 1
 0 1 l 1
1 0 m 1
 1 1 l 1
 2 1 l 5
 2 0 l 1
 1 0 l 1
2 0 m 1
 2 1 l 1
 3 1 l 1
 3 0 l 1
 2 0 l 1
3 0 m 1
 3 1 l 1
 4 1 l 1
 4 0 l 1
 3 0 l 1
2 5 m 1
 3 5 l 1
 3 6 l 1
 2 6 l 1
 2 5 l 1
3 5 m 1
 4 5 l 1
 4 6 l 1
 3 6 l 1
 3 5 l 1
1 4 m 1
 2 4 l 1
 2 5 l 1
 1 5 l 1
 1 4 l 1
0 3 m 1
 1 3 l 1
 1 4 l 1
 0 4 l 1
 0 3 l 1
0 2 m 1
 1 2 l 1
 1 3 l 1
 0 3 l 1
 0 2 l 1
0 1 m 1
 1 1 l 1
 1 2 l 1
 0 2 l 1
 0 1 l 1
1 0 m 1
 2 0 l 1
 2 1 l 1
 1 1 l 1
 1 0 l 1
2 0 m 1
 3 0 l 1
 3 1 l 1
 2 1 l 1
 2 0 l 1
3 0 m 1
 4 0 l 1
 4 1 l 1
 3 1 l 1
 3 0 l 1
EndSplineSet
EndChar

StartChar: D
Encoding: 68 68 68
Width: 4
Flags: HW
LayerCount: 2
Fore
SplineSet
0 5 m 1
 0 6 l 1
 1 6 l 1
 1 5 l 1
 0 5 l 1
1 5 m 1
 1 6 l 1
 2 6 l 1
 2 5 l 1
 1 5 l 1
2 5 m 1
 2 6 l 1
 3 6 l 1
 3 5 l 1
 2 5 l 1
0 4 m 1
 0 5 l 1
 1 5 l 1
 1 4 l 1
 0 4 l 1
3 4 m 1
 3 5 l 1
 4 5 l 1
 4 4 l 1
 3 4 l 1
0 3 m 1
 0 4 l 1
 1 4 l 1
 1 3 l 1
 0 3 l 1
3 3 m 1
 3 4 l 1
 4 4 l 1
 4 3 l 1
 3 3 l 1
0 2 m 1
 0 3 l 1
 1 3 l 1
 1 2 l 1
 0 2 l 1
3 2 m 1
 3 3 l 1
 4 3 l 1
 4 2 l 1
 3 2 l 1
0 1 m 1
 0 2 l 1
 1 2 l 1
 1 1 l 1
 0 1 l 1
3 1 m 1
 3 2 l 1
 4 2 l 1
 4 1 l 1
 3 1 l 1
0 0 m 1
 0 1 l 1
 1 1 l 1
 1 0 l 1
 0 0 l 1
1 0 m 1
 1 1 l 1
 2 1 l 1
 2 0 l 1
 1 0 l 1
2 0 m 1
 2 1 l 1
 3 1 l 1
 3 0 l 1
 2 0 l 1
0 5 m 1
 0 6 l 1
 1 6 l 1
 1 5 l 1
 0 5 l 1
1 5 m 1
 1 6 l 1
 2 6 l 1
 2 5 l 1
 1 5 l 1
2 5 m 1
 2 6 l 1
 3 6 l 1
 3 5 l 1
 2 5 l 1
0 4 m 1
 0 5 l 1
 1 5 l 1
 1 4 l 1
 0 4 l 1
3 4 m 1
 3 5 l 1
 4 5 l 1
 4 4 l 1
 3 4 l 1
0 3 m 1
 0 4 l 1
 1 4 l 1
 1 3 l 1
 0 3 l 1
3 3 m 1
 3 4 l 1
 4 4 l 1
 4 3 l 1
 3 3 l 1
0 2 m 1
 0 3 l 1
 1 3 l 1
 1 2 l 1
 0 2 l 1
3 2 m 1
 3 3 l 1
 4 3 l 1
 4 2 l 1
 3 2 l 1
0 1 m 1
 0 2 l 1
 1 2 l 1
 1 1 l 1
 0 1 l 1
3 1 m 1
 3 2 l 1
 4 2 l 1
 4 1 l 1
 3 1 l 1
0 0 m 1
 0 1 l 1
 1 1 l 1
 1 0 l 1
 0 0 l 1
1 0 m 1
 1 1 l 1
 2 1 l 1
 2 0 l 1
 1 0 l 1
2 0 m 1
 2 1 l 1
 3 1 l 1
 3 0 l 1
 2 0 l 1
0 5 m 1
 1 5 l 1
 1 6 l 1
 0 6 l 1
 0 5 l 1
1 5 m 1
 2 5 l 1
 2 6 l 1
 1 6 l 1
 1 5 l 1
2 5 m 1
 3 5 l 1
 3 6 l 1
 2 6 l 1
 2 5 l 1
0 4 m 1
 1 4 l 1
 1 5 l 1
 0 5 l 1
 0 4 l 1
3 4 m 1
 4 4 l 1
 4 5 l 1
 3 5 l 1
 3 4 l 1
0 3 m 1
 1 3 l 1
 1 4 l 1
 0 4 l 1
 0 3 l 1
3 3 m 1
 4 3 l 1
 4 4 l 1
 3 4 l 1
 3 3 l 1
0 2 m 1
 1 2 l 1
 1 3 l 1
 0 3 l 1
 0 2 l 1
3 2 m 1
 4 2 l 1
 4 3 l 1
 3 3 l 1
 3 2 l 1
0 1 m 1
 1 1 l 1
 1 2 l 1
 0 2 l 1
 0 1 l 1
3 1 m 1
 4 1 l 1
 4 2 l 1
 3 2 l 1
 3 1 l 1
0 0 m 1
 1 0 l 1
 1 1 l 1
 0 1 l 1
 0 0 l 1
1 0 m 1
 2 0 l 1
 2 1 l 1
 1 1 l 1
 1 0 l 1
2 0 m 1
 3 0 l 1
 3 1 l 1
 2 1 l 1
 2 0 l 1
EndSplineSet
EndChar

StartChar: E
Encoding: 69 69 69
Width: 4
Flags: HW
LayerCount: 2
Fore
SplineSet
0 5 m 1
 0 6 l 1
 1 6 l 1
 1 5 l 1
 0 5 l 1
1 5 m 1
 1 6 l 1
 2 6 l 1
 2 5 l 1
 1 5 l 1
2 5 m 1
 2 6 l 1
 3 6 l 1
 3 5 l 1
 2 5 l 1
0 4 m 1
 0 5 l 1
 1 5 l 1
 1 4 l 1
 0 4 l 1
0 3 m 1
 0 4 l 1
 1 4 l 1
 1 3 l 1
 0 3 l 1
0 2 m 1
 0 3 l 1
 1 3 l 1
 1 2 l 1
 0 2 l 1
1 2 m 1
 1 3 l 1
 2 3 l 1
 2 2 l 1
 1 2 l 1
2 2 m 1
 2 3 l 1
 3 3 l 1
 3 2 l 1
 2 2 l 1
0 1 m 1
 0 2 l 1
 1 2 l 1
 1 1 l 1
 0 1 l 1
0 0 m 1
 0 1 l 1
 1 1 l 1
 1 0 l 1
 0 0 l 1
1 0 m 1
 1 1 l 1
 2 1 l 1
 2 0 l 1
 1 0 l 1
2 0 m 1
 2 1 l 1
 3 1 l 1
 3 0 l 1
 2 0 l 1
3 0 m 1
 3 1 l 1
 4 1 l 1
 4 0 l 1
 3 0 l 1
0 5 m 1
 0 6 l 1
 1 6 l 1
 1 5 l 1
 0 5 l 1
1 5 m 1
 1 6 l 1
 2 6 l 1
 2 5 l 1
 1 5 l 1
2 5 m 1
 2 6 l 1
 3 6 l 1
 3 5 l 1
 2 5 l 1
0 4 m 1
 0 5 l 1
 1 5 l 1
 1 4 l 1
 0 4 l 1
0 3 m 1
 0 4 l 1
 1 4 l 1
 1 3 l 1
 0 3 l 1
0 2 m 1
 0 3 l 1
 1 3 l 1
 1 2 l 1
 0 2 l 1
1 2 m 1
 1 3 l 1
 2 3 l 1
 2 2 l 1
 1 2 l 1
2 2 m 1
 2 3 l 1
 3 3 l 1
 3 2 l 1
 2 2 l 1
0 1 m 1
 0 2 l 1
 1 2 l 1
 1 1 l 1
 0 1 l 1
0 0 m 1
 0 1 l 1
 1 1 l 1
 1 0 l 1
 0 0 l 1
1 0 m 1
 1 1 l 1
 2 1 l 1
 2 0 l 1
 1 0 l 1
2 0 m 1
 2 1 l 1
 3 1 l 1
 3 0 l 1
 2 0 l 1
3 0 m 1
 3 1 l 1
 4 1 l 1
 4 0 l 1
 3 0 l 1
0 5 m 1
 1 5 l 1
 1 6 l 1
 0 6 l 1
 0 5 l 1
1 5 m 1
 2 5 l 1
 2 6 l 1
 1 6 l 1
 1 5 l 1
2 5 m 1
 3 5 l 1
 3 6 l 1
 2 6 l 1
 2 5 l 1
0 4 m 1
 1 4 l 1
 1 5 l 1
 0 5 l 1
 0 4 l 1
0 3 m 1
 1 3 l 1
 1 4 l 1
 0 4 l 1
 0 3 l 1
0 2 m 1
 1 2 l 1
 1 3 l 1
 0 3 l 1
 0 2 l 1
1 2 m 1
 2 2 l 1
 2 3 l 1
 1 3 l 1
 1 2 l 1
2 2 m 1
 3 2 l 1
 3 3 l 1
 2 3 l 1
 2 2 l 1
0 1 m 1
 1 1 l 1
 1 2 l 1
 0 2 l 1
 0 1 l 1
0 0 m 1
 1 0 l 1
 1 1 l 1
 0 1 l 1
 0 0 l 1
1 0 m 1
 2 0 l 1
 2 1 l 1
 1 1 l 1
 1 0 l 1
2 0 m 1
 3 0 l 1
 3 1 l 1
 2 1 l 1
 2 0 l 1
3 0 m 1
 4 0 l 1
 4 1 l 1
 3 1 l 1
 3 0 l 1
EndSplineSet
EndChar

StartChar: F
Encoding: 70 70 70
Width: 4
Flags: HW
LayerCount: 2
Fore
SplineSet
1 5 m 1
 1 6 l 1
 2 6 l 1
 2 5 l 1
 1 5 l 1
2 5 m 1
 2 6 l 1
 3 6 l 1
 3 5 l 1
 2 5 l 1
3 5 m 1
 3 6 l 1
 4 6 l 1
 4 5 l 1
 3 5 l 1
0 4 m 1
 0 5 l 1
 1 5 l 1
 1 4 l 1
 0 4 l 1
0 3 m 1
 0 4 l 1
 1 4 l 1
 1 3 l 1
 0 3 l 1
1 3 m 1
 1 4 l 1
 2 4 l 1
 2 3 l 1
 1 3 l 1
2 3 m 1
 2 4 l 1
 3 4 l 1
 3 3 l 1
 2 3 l 1
0 2 m 1
 0 3 l 1
 1 3 l 1
 1 2 l 1
 0 2 l 1
0 1 m 1
 0 2 l 1
 1 2 l 1
 1 1 l 1
 0 1 l 1
0 0 m 1
 0 1 l 1
 1 1 l 1
 1 0 l 1
 0 0 l 1
1 5 m 1
 1 6 l 1
 2 6 l 1
 2 5 l 1
 1 5 l 1
2 5 m 1
 2 6 l 1
 3 6 l 1
 3 5 l 1
 2 5 l 1
3 5 m 1
 3 6 l 1
 4 6 l 1
 4 5 l 1
 3 5 l 1
0 4 m 1
 0 5 l 1
 1 5 l 1
 1 4 l 1
 0 4 l 1
0 3 m 1
 0 4 l 1
 1 4 l 1
 1 3 l 1
 0 3 l 1
1 3 m 1
 1 4 l 1
 2 4 l 1
 2 3 l 1
 1 3 l 1
2 3 m 1
 2 4 l 1
 3 4 l 1
 3 3 l 1
 2 3 l 1
0 2 m 1
 0 3 l 1
 1 3 l 1
 1 2 l 1
 0 2 l 1
0 1 m 1
 0 2 l 1
 1 2 l 1
 1 1 l 1
 0 1 l 1
0 0 m 1
 0 1 l 1
 1 1 l 1
 1 0 l 1
 0 0 l 1
1 5 m 1
 2 5 l 1
 2 6 l 1
 1 6 l 1
 1 5 l 1
2 5 m 1
 3 5 l 1
 3 6 l 1
 2 6 l 1
 2 5 l 1
3 5 m 1
 4 5 l 1
 4 6 l 1
 3 6 l 1
 3 5 l 1
0 4 m 1
 1 4 l 1
 1 5 l 1
 0 5 l 1
 0 4 l 1
0 3 m 1
 1 3 l 1
 1 4 l 1
 0 4 l 1
 0 3 l 1
1 3 m 1
 2 3 l 1
 2 4 l 1
 1 4 l 1
 1 3 l 1
2 3 m 1
 3 3 l 1
 3 4 l 1
 2 4 l 1
 2 3 l 1
0 2 m 1
 1 2 l 1
 1 3 l 1
 0 3 l 1
 0 2 l 1
0 1 m 1
 1 1 l 1
 1 2 l 1
 0 2 l 1
 0 1 l 1
0 0 m 1
 1 0 l 1
 1 1 l 1
 0 1 l 1
 0 0 l 1
EndSplineSet
EndChar

StartChar: G
Encoding: 71 71 71
Width: 4
Flags: HW
LayerCount: 2
Fore
SplineSet
1 5 m 1
 1 6 l 1
 2 6 l 1
 2 5 l 1
 1 5 l 1
2 5 m 1
 2 6 l 1
 3 6 l 1
 3 5 l 1
 2 5 l 1
3 5 m 1
 3 6 l 1
 4 6 l 1
 4 5 l 1
 3 5 l 1
0 4 m 1
 0 5 l 1
 1 5 l 1
 1 4 l 1
 0 4 l 1
0 3 m 1
 0 4 l 1
 1 4 l 1
 1 3 l 1
 0 3 l 1
0 2 m 1
 0 3 l 1
 1 3 l 1
 1 2 l 1
 0 2 l 1
2 2 m 1
 2 3 l 1
 3 3 l 1
 3 2 l 1
 2 2 l 1
3 2 m 1
 3 3 l 1
 4 3 l 1
 4 2 l 1
 3 2 l 1
0 1 m 1
 0 2 l 1
 1 2 l 1
 1 1 l 1
 0 1 l 1
3 1 m 1
 3 2 l 1
 4 2 l 1
 4 1 l 1
 3 1 l 1
1 0 m 1
 1 1 l 1
 2 1 l 1
 2 0 l 1
 1 0 l 1
2 0 m 1
 2 1 l 1
 3 1 l 1
 3 0 l 1
 2 0 l 1
3 0 m 1
 3 1 l 1
 4 1 l 1
 4 0 l 1
 3 0 l 1
1 5 m 1
 1 6 l 1
 2 6 l 1
 2 5 l 1
 1 5 l 1
2 5 m 1
 2 6 l 1
 3 6 l 1
 3 5 l 1
 2 5 l 1
3 5 m 1
 3 6 l 1
 4 6 l 1
 4 5 l 1
 3 5 l 1
0 4 m 1
 0 5 l 1
 1 5 l 1
 1 4 l 1
 0 4 l 1
0 3 m 1
 0 4 l 1
 1 4 l 1
 1 3 l 1
 0 3 l 1
0 2 m 1
 0 3 l 1
 1 3 l 1
 1 2 l 1
 0 2 l 1
2 2 m 1
 2 3 l 1
 3 3 l 1
 3 2 l 1
 2 2 l 1
3 2 m 1
 3 3 l 1
 4 3 l 1
 4 2 l 1
 3 2 l 1
0 1 m 1
 0 2 l 1
 1 2 l 1
 1 1 l 1
 0 1 l 1
3 1 m 1
 3 2 l 1
 4 2 l 1
 4 1 l 1
 3 1 l 1
1 0 m 1
 1 1 l 1
 2 1 l 1
 2 0 l 1
 1 0 l 1
2 0 m 1
 2 1 l 1
 3 1 l 1
 3 0 l 1
 2 0 l 1
3 0 m 1
 3 1 l 1
 4 1 l 1
 4 0 l 1
 3 0 l 1
EndSplineSet
EndChar

StartChar: H
Encoding: 72 72 72
Width: 4
Flags: HW
LayerCount: 2
Fore
SplineSet
0 5 m 1
 0 6 l 1
 1 6 l 1
 1 5 l 1
 0 5 l 1
3 5 m 1
 3 6 l 1
 4 6 l 1
 4 5 l 1
 3 5 l 1
0 4 m 1
 0 5 l 1
 1 5 l 1
 1 4 l 1
 0 4 l 1
3 4 m 1
 3 5 l 1
 4 5 l 1
 4 4 l 1
 3 4 l 1
0 3 m 1
 0 4 l 1
 1 4 l 1
 1 3 l 1
 0 3 l 1
3 3 m 1
 3 4 l 1
 4 4 l 1
 4 3 l 1
 3 3 l 1
0 2 m 1
 0 3 l 1
 1 3 l 1
 1 2 l 1
 0 2 l 1
1 2 m 1
 1 3 l 1
 2 3 l 1
 2 2 l 1
 1 2 l 1
2 2 m 1
 2 3 l 1
 3 3 l 1
 3 2 l 1
 2 2 l 1
3 2 m 1
 3 3 l 1
 4 3 l 1
 4 2 l 1
 3 2 l 1
0 1 m 1
 0 2 l 1
 1 2 l 1
 1 1 l 1
 0 1 l 1
3 1 m 1
 3 2 l 1
 4 2 l 1
 4 1 l 1
 3 1 l 1
0 0 m 1
 0 1 l 1
 1 1 l 1
 1 0 l 1
 0 0 l 1
3 0 m 1
 3 1 l 1
 4 1 l 1
 4 0 l 1
 3 0 l 1
0 5 m 1
 0 6 l 1
 1 6 l 1
 1 5 l 1
 0 5 l 1
3 5 m 1
 3 6 l 1
 4 6 l 1
 4 5 l 1
 3 5 l 1
0 4 m 1
 0 5 l 1
 1 5 l 1
 1 4 l 1
 0 4 l 1
3 4 m 1
 3 5 l 1
 4 5 l 1
 4 4 l 1
 3 4 l 1
0 3 m 1
 0 4 l 1
 1 4 l 1
 1 3 l 1
 0 3 l 1
3 3 m 1
 3 4 l 1
 4 4 l 1
 4 3 l 1
 3 3 l 1
0 2 m 1
 0 3 l 1
 1 3 l 1
 1 2 l 1
 0 2 l 1
1 2 m 1
 1 3 l 1
 2 3 l 1
 2 2 l 1
 1 2 l 1
2 2 m 1
 2 3 l 1
 3 3 l 1
 3 2 l 1
 2 2 l 1
3 2 m 1
 3 3 l 1
 4 3 l 1
 4 2 l 1
 3 2 l 1
0 1 m 1
 0 2 l 1
 1 2 l 1
 1 1 l 1
 0 1 l 1
3 1 m 1
 3 2 l 1
 4 2 l 1
 4 1 l 1
 3 1 l 1
0 0 m 1
 0 1 l 1
 1 1 l 1
 1 0 l 1
 0 0 l 1
3 0 m 1
 3 1 l 1
 4 1 l 1
 4 0 l 1
 3 0 l 1
EndSplineSet
EndChar

StartChar: I
Encoding: 73 73 73
Width: 4
Flags: HW
LayerCount: 2
Fore
SplineSet
0 5 m 1
 0 6 l 1
 1 6 l 1
 1 5 l 1
 0 5 l 1
1 5 m 1
 1 6 l 1
 2 6 l 1
 2 5 l 1
 1 5 l 1
2 5 m 1
 2 6 l 1
 3 6 l 1
 3 5 l 1
 2 5 l 1
3 5 m 1
 3 6 l 1
 4 6 l 1
 4 5 l 1
 3 5 l 1
1 4 m 1
 1 5 l 1
 2 5 l 1
 2 4 l 1
 1 4 l 1
1 3 m 1
 1 4 l 1
 2 4 l 1
 2 3 l 1
 1 3 l 1
1 2 m 1
 1 3 l 1
 2 3 l 1
 2 2 l 1
 1 2 l 1
1 1 m 1
 1 2 l 1
 2 2 l 1
 2 1 l 1
 1 1 l 1
0 0 m 1
 0 1 l 1
 1 1 l 1
 1 0 l 1
 0 0 l 1
1 0 m 1
 1 1 l 1
 2 1 l 1
 2 0 l 1
 1 0 l 1
2 0 m 1
 2 1 l 1
 3 1 l 1
 3 0 l 1
 2 0 l 1
3 0 m 1
 3 1 l 1
 4 1 l 1
 4 0 l 1
 3 0 l 1
0 5 m 1
 0 6 l 1
 1 6 l 1
 1 5 l 1
 0 5 l 1
1 5 m 1
 1 6 l 1
 2 6 l 1
 2 5 l 1
 1 5 l 1
2 5 m 1
 2 6 l 1
 3 6 l 1
 3 5 l 1
 2 5 l 1
3 5 m 1
 3 6 l 1
 4 6 l 1
 4 5 l 1
 3 5 l 1
1 4 m 1
 1 5 l 1
 2 5 l 1
 2 4 l 1
 1 4 l 1
1 3 m 1
 1 4 l 1
 2 4 l 1
 2 3 l 1
 1 3 l 1
1 2 m 1
 1 3 l 1
 2 3 l 1
 2 2 l 1
 1 2 l 1
1 1 m 1
 1 2 l 1
 2 2 l 1
 2 1 l 1
 1 1 l 1
0 0 m 1
 0 1 l 1
 1 1 l 1
 1 0 l 1
 0 0 l 1
1 0 m 1
 1 1 l 1
 2 1 l 1
 2 0 l 1
 1 0 l 1
2 0 m 1
 2 1 l 1
 3 1 l 1
 3 0 l 1
 2 0 l 1
3 0 m 1
 3 1 l 1
 4 1 l 1
 4 0 l 1
 3 0 l 1
EndSplineSet
EndChar

StartChar: J
Encoding: 74 74 74
Width: 4
Flags: HW
LayerCount: 2
Fore
SplineSet
1 5 m 1
 1 6 l 1
 2 6 l 1
 2 5 l 1
 1 5 l 1
2 5 m 1
 2 6 l 1
 3 6 l 1
 3 5 l 1
 2 5 l 1
3 5 m 1
 3 6 l 1
 4 6 l 1
 4 5 l 1
 3 5 l 1
2 4 m 1
 2 5 l 1
 3 5 l 1
 3 4 l 1
 2 4 l 1
2 3 m 1
 2 4 l 1
 3 4 l 1
 3 3 l 1
 2 3 l 1
2 2 m 1
 2 3 l 1
 3 3 l 1
 3 2 l 1
 2 2 l 1
0 1 m 1
 0 2 l 1
 1 2 l 1
 1 1 l 1
 0 1 l 1
2 1 m 1
 2 2 l 1
 3 2 l 1
 3 1 l 1
 2 1 l 1
0 0 m 1
 0 1 l 1
 1 1 l 1
 1 0 l 1
 0 0 l 1
1 0 m 1
 1 1 l 1
 2 1 l 1
 2 0 l 1
 1 0 l 1
2 0 m 1
 2 1 l 1
 3 1 l 1
 3 0 l 1
 2 0 l 1
1 5 m 1
 1 6 l 1
 2 6 l 1
 2 5 l 1
 1 5 l 1
2 5 m 1
 2 6 l 1
 3 6 l 1
 3 5 l 1
 2 5 l 1
3 5 m 1
 3 6 l 1
 4 6 l 1
 4 5 l 1
 3 5 l 1
2 4 m 1
 2 5 l 1
 3 5 l 1
 3 4 l 1
 2 4 l 1
2 3 m 1
 2 4 l 1
 3 4 l 1
 3 3 l 1
 2 3 l 1
2 2 m 1
 2 3 l 1
 3 3 l 1
 3 2 l 1
 2 2 l 1
0 1 m 1
 0 2 l 1
 1 2 l 1
 1 1 l 1
 0 1 l 1
2 1 m 1
 2 2 l 1
 3 2 l 1
 3 1 l 1
 2 1 l 1
0 0 m 1
 0 1 l 1
 1 1 l 1
 1 0 l 1
 0 0 l 1
1 0 m 1
 1 1 l 1
 2 1 l 1
 2 0 l 1
 1 0 l 1
2 0 m 1
 2 1 l 1
 3 1 l 1
 3 0 l 1
 2 0 l 1
EndSplineSet
EndChar

StartChar: K
Encoding: 75 75 75
Width: 4
Flags: HW
LayerCount: 2
Fore
SplineSet
0 5 m 1
 0 6 l 1
 1 6 l 1
 1 5 l 1
 0 5 l 1
3 5 m 1
 3 6 l 1
 4 6 l 1
 4 5 l 1
 3 5 l 1
0 4 m 1
 0 5 l 1
 1 5 l 1
 1 4 l 1
 0 4 l 1
3 4 m 1
 3 5 l 1
 4 5 l 1
 4 4 l 1
 3 4 l 1
0 3 m 1
 0 4 l 1
 1 4 l 1
 1 3 l 1
 0 3 l 1
2 3 m 1
 2 4 l 1
 3 4 l 1
 3 3 l 1
 2 3 l 1
0 2 m 1
 0 3 l 1
 1 3 l 1
 1 2 l 1
 0 2 l 1
1 2 m 1
 1 3 l 1
 2 3 l 1
 2 2 l 1
 1 2 l 1
0 1 m 1
 0 2 l 1
 1 2 l 1
 1 1 l 1
 0 1 l 1
2 1 m 1
 2 2 l 1
 3 2 l 1
 3 1 l 1
 2 1 l 1
0 0 m 1
 0 1 l 1
 1 1 l 1
 1 0 l 1
 0 0 l 1
3 0 m 1
 3 1 l 1
 4 1 l 1
 4 0 l 1
 3 0 l 1
0 5 m 1
 0 6 l 1
 1 6 l 1
 1 5 l 1
 0 5 l 1
3 5 m 1
 3 6 l 1
 4 6 l 1
 4 5 l 1
 3 5 l 1
0 4 m 1
 0 5 l 1
 1 5 l 1
 1 4 l 1
 0 4 l 1
3 4 m 1
 3 5 l 1
 4 5 l 1
 4 4 l 1
 3 4 l 1
0 3 m 1
 0 4 l 1
 1 4 l 1
 1 3 l 1
 0 3 l 1
2 3 m 1
 2 4 l 1
 3 4 l 1
 3 3 l 1
 2 3 l 1
0 2 m 1
 0 3 l 1
 1 3 l 1
 1 2 l 1
 0 2 l 1
1 2 m 1
 1 3 l 1
 2 3 l 1
 2 2 l 1
 1 2 l 1
0 1 m 1
 0 2 l 1
 1 2 l 1
 1 1 l 1
 0 1 l 1
2 1 m 1
 2 2 l 1
 3 2 l 1
 3 1 l 1
 2 1 l 1
0 0 m 1
 0 1 l 1
 1 1 l 1
 1 0 l 1
 0 0 l 1
3 0 m 1
 3 1 l 1
 4 1 l 1
 4 0 l 1
 3 0 l 1
EndSplineSet
EndChar

StartChar: L
Encoding: 76 76 76
Width: 4
Flags: HW
LayerCount: 2
Fore
SplineSet
0 5 m 1
 0 6 l 1
 1 6 l 1
 1 5 l 1
 0 5 l 1
0 4 m 1
 0 5 l 1
 1 5 l 1
 1 4 l 1
 0 4 l 1
0 3 m 1
 0 4 l 1
 1 4 l 1
 1 3 l 1
 0 3 l 1
0 2 m 1
 0 3 l 1
 1 3 l 1
 1 2 l 1
 0 2 l 1
0 1 m 1
 0 2 l 1
 1 2 l 1
 1 1 l 1
 0 1 l 1
1 0 m 1
 1 1 l 1
 2 1 l 1
 2 0 l 1
 1 0 l 1
2 0 m 1
 2 1 l 1
 3 1 l 1
 3 0 l 1
 2 0 l 1
3 0 m 1
 3 1 l 1
 4 1 l 1
 4 0 l 1
 3 0 l 1
0 5 m 1
 0 6 l 1
 1 6 l 1
 1 5 l 1
 0 5 l 1
0 4 m 1
 0 5 l 1
 1 5 l 1
 1 4 l 1
 0 4 l 1
0 3 m 1
 0 4 l 1
 1 4 l 1
 1 3 l 1
 0 3 l 1
0 2 m 1
 0 3 l 1
 1 3 l 1
 1 2 l 1
 0 2 l 1
0 1 m 1
 0 2 l 1
 1 2 l 1
 1 1 l 1
 0 1 l 1
1 0 m 1
 1 1 l 1
 2 1 l 1
 2 0 l 1
 1 0 l 1
2 0 m 1
 2 1 l 1
 3 1 l 1
 3 0 l 1
 2 0 l 1
3 0 m 1
 3 1 l 1
 4 1 l 1
 4 0 l 1
 3 0 l 1
EndSplineSet
EndChar

StartChar: M
Encoding: 77 77 77
Width: 4
Flags: HW
LayerCount: 2
Fore
SplineSet
0 5 m 1
 0 6 l 1
 1 6 l 1
 1 5 l 1
 0 5 l 1
2 5 m 1
 2 6 l 1
 3 6 l 1
 3 5 l 1
 2 5 l 1
3 5 m 1
 3 6 l 1
 4 6 l 1
 4 5 l 1
 3 5 l 1
0 4 m 1
 0 5 l 1
 1 5 l 1
 1 4 l 1
 0 4 l 1
1 4 m 1
 1 5 l 1
 2 5 l 1
 2 4 l 1
 1 4 l 1
2 4 m 1
 2 5 l 1
 3 5 l 1
 3 4 l 1
 2 4 l 1
3 4 m 1
 3 5 l 1
 4 5 l 1
 4 4 l 1
 3 4 l 1
0 3 m 1
 0 4 l 1
 1 4 l 1
 1 3 l 1
 0 3 l 1
1 3 m 1
 1 4 l 1
 2 4 l 1
 2 3 l 1
 1 3 l 1
3 3 m 1
 3 4 l 1
 4 4 l 1
 4 3 l 1
 3 3 l 1
0 2 m 1
 0 3 l 1
 1 3 l 1
 1 2 l 1
 0 2 l 1
3 2 m 1
 3 3 l 1
 4 3 l 1
 4 2 l 1
 3 2 l 1
0 1 m 1
 0 2 l 1
 1 2 l 1
 1 1 l 1
 0 1 l 1
3 1 m 1
 3 2 l 1
 4 2 l 1
 4 1 l 1
 3 1 l 1
0 0 m 1
 0 1 l 1
 1 1 l 1
 1 0 l 1
 0 0 l 1
3 0 m 1
 3 1 l 1
 4 1 l 1
 4 0 l 1
 3 0 l 1
0 5 m 1
 0 6 l 1
 1 6 l 1
 1 5 l 1
 0 5 l 1
2 5 m 1
 2 6 l 1
 3 6 l 1
 3 5 l 1
 2 5 l 1
3 5 m 1
 3 6 l 1
 4 6 l 1
 4 5 l 1
 3 5 l 1
0 4 m 1
 0 5 l 1
 1 5 l 1
 1 4 l 1
 0 4 l 1
1 4 m 1
 1 5 l 1
 2 5 l 1
 2 4 l 1
 1 4 l 1
2 4 m 1
 2 5 l 1
 3 5 l 1
 3 4 l 1
 2 4 l 1
3 4 m 1
 3 5 l 1
 4 5 l 1
 4 4 l 1
 3 4 l 1
0 3 m 1
 0 4 l 1
 1 4 l 1
 1 3 l 1
 0 3 l 1
1 3 m 1
 1 4 l 1
 2 4 l 1
 2 3 l 1
 1 3 l 1
3 3 m 1
 3 4 l 1
 4 4 l 1
 4 3 l 1
 3 3 l 1
0 2 m 1
 0 3 l 1
 1 3 l 1
 1 2 l 1
 0 2 l 1
3 2 m 1
 3 3 l 1
 4 3 l 1
 4 2 l 1
 3 2 l 1
0 1 m 1
 0 2 l 1
 1 2 l 1
 1 1 l 1
 0 1 l 1
3 1 m 1
 3 2 l 1
 4 2 l 1
 4 1 l 1
 3 1 l 1
0 0 m 1
 0 1 l 1
 1 1 l 1
 1 0 l 1
 0 0 l 1
3 0 m 1
 3 1 l 1
 4 1 l 1
 4 0 l 1
 3 0 l 1
EndSplineSet
EndChar

StartChar: N
Encoding: 78 78 78
Width: 4
Flags: HW
LayerCount: 2
Fore
SplineSet
0 5 m 1
 0 6 l 1
 1 6 l 1
 1 5 l 1
 0 5 l 1
1 5 m 1
 1 6 l 1
 2 6 l 1
 2 5 l 1
 1 5 l 1
3 5 m 1
 3 6 l 1
 4 6 l 1
 4 5 l 1
 3 5 l 1
0 4 m 1
 0 5 l 1
 1 5 l 1
 1 4 l 1
 0 4 l 1
1 4 m 1
 1 5 l 1
 2 5 l 1
 2 4 l 1
 1 4 l 1
3 4 m 1
 3 5 l 1
 4 5 l 1
 4 4 l 1
 3 4 l 1
0 3 m 1
 0 4 l 1
 1 4 l 1
 1 3 l 1
 0 3 l 1
2 3 m 1
 2 4 l 1
 3 4 l 1
 3 3 l 1
 2 3 l 1
3 3 m 1
 3 4 l 1
 4 4 l 1
 4 3 l 1
 3 3 l 1
0 2 m 1
 0 3 l 1
 1 3 l 1
 1 2 l 1
 0 2 l 1
2 2 m 1
 2 3 l 1
 3 3 l 1
 3 2 l 1
 2 2 l 1
3 2 m 1
 3 3 l 1
 4 3 l 1
 4 2 l 1
 3 2 l 1
0 1 m 1
 0 2 l 1
 1 2 l 1
 1 1 l 1
 0 1 l 1
3 1 m 1
 3 2 l 1
 4 2 l 1
 4 1 l 1
 3 1 l 1
0 0 m 1
 0 1 l 1
 1 1 l 1
 1 0 l 1
 0 0 l 1
3 0 m 1
 3 1 l 1
 4 1 l 1
 4 0 l 1
 3 0 l 1
0 5 m 1
 0 6 l 1
 1 6 l 1
 1 5 l 1
 0 5 l 1
1 5 m 1
 1 6 l 1
 2 6 l 1
 2 5 l 1
 1 5 l 1
3 5 m 1
 3 6 l 1
 4 6 l 1
 4 5 l 1
 3 5 l 1
0 4 m 1
 0 5 l 1
 1 5 l 1
 1 4 l 1
 0 4 l 1
1 4 m 1
 1 5 l 1
 2 5 l 1
 2 4 l 1
 1 4 l 1
3 4 m 1
 3 5 l 1
 4 5 l 1
 4 4 l 1
 3 4 l 1
0 3 m 1
 0 4 l 1
 1 4 l 1
 1 3 l 1
 0 3 l 1
2 3 m 1
 2 4 l 1
 3 4 l 1
 3 3 l 1
 2 3 l 1
3 3 m 1
 3 4 l 1
 4 4 l 1
 4 3 l 1
 3 3 l 1
0 2 m 1
 0 3 l 1
 1 3 l 1
 1 2 l 1
 0 2 l 1
2 2 m 1
 2 3 l 1
 3 3 l 1
 3 2 l 1
 2 2 l 1
3 2 m 1
 3 3 l 1
 4 3 l 1
 4 2 l 1
 3 2 l 1
0 1 m 1
 0 2 l 1
 1 2 l 1
 1 1 l 1
 0 1 l 1
3 1 m 1
 3 2 l 1
 4 2 l 1
 4 1 l 1
 3 1 l 1
0 0 m 1
 0 1 l 1
 1 1 l 1
 1 0 l 1
 0 0 l 1
3 0 m 1
 3 1 l 1
 4 1 l 1
 4 0 l 1
 3 0 l 1
EndSplineSet
EndChar

StartChar: O
Encoding: 79 79 79
Width: 4
Flags: HW
LayerCount: 2
Fore
SplineSet
1 5 m 1
 1 6 l 1
 2 6 l 1
 2 5 l 1
 1 5 l 1
2 5 m 1
 2 6 l 1
 3 6 l 1
 3 5 l 1
 2 5 l 1
3 5 m 1
 3 6 l 1
 4 6 l 1
 4 5 l 1
 3 5 l 1
0 4 m 1
 0 5 l 1
 1 5 l 1
 1 4 l 1
 0 4 l 1
3 4 m 1
 3 5 l 1
 4 5 l 1
 4 4 l 1
 3 4 l 1
0 3 m 1
 0 4 l 1
 1 4 l 1
 1 3 l 1
 0 3 l 1
3 3 m 1
 3 4 l 1
 4 4 l 1
 4 3 l 1
 3 3 l 1
0 2 m 1
 0 3 l 1
 1 3 l 1
 1 2 l 1
 0 2 l 1
3 2 m 1
 3 3 l 1
 4 3 l 1
 4 2 l 1
 3 2 l 1
0 1 m 1
 0 2 l 1
 1 2 l 1
 1 1 l 1
 0 1 l 1
3 1 m 1
 3 2 l 1
 4 2 l 1
 4 1 l 1
 3 1 l 1
0 0 m 1
 0 1 l 1
 1 1 l 1
 1 0 l 1
 0 0 l 1
1 0 m 1
 1 1 l 1
 2 1 l 1
 2 0 l 1
 1 0 l 1
2 0 m 1
 2 1 l 1
 3 1 l 1
 3 0 l 1
 2 0 l 1
1 5 m 1
 1 6 l 1
 2 6 l 1
 2 5 l 1
 1 5 l 1
2 5 m 1
 2 6 l 1
 3 6 l 1
 3 5 l 1
 2 5 l 1
3 5 m 1
 3 6 l 1
 4 6 l 1
 4 5 l 1
 3 5 l 1
0 4 m 1
 0 5 l 1
 1 5 l 1
 1 4 l 1
 0 4 l 1
3 4 m 1
 3 5 l 1
 4 5 l 1
 4 4 l 1
 3 4 l 1
0 3 m 1
 0 4 l 1
 1 4 l 1
 1 3 l 1
 0 3 l 1
3 3 m 1
 3 4 l 1
 4 4 l 1
 4 3 l 1
 3 3 l 1
0 2 m 1
 0 3 l 1
 1 3 l 1
 1 2 l 1
 0 2 l 1
3 2 m 1
 3 3 l 1
 4 3 l 1
 4 2 l 1
 3 2 l 1
0 1 m 1
 0 2 l 1
 1 2 l 1
 1 1 l 1
 0 1 l 1
3 1 m 1
 3 2 l 1
 4 2 l 1
 4 1 l 1
 3 1 l 1
0 0 m 1
 0 1 l 1
 1 1 l 1
 1 0 l 1
 0 0 l 1
1 0 m 1
 1 1 l 1
 2 1 l 1
 2 0 l 1
 1 0 l 1
2 0 m 1
 2 1 l 1
 3 1 l 1
 3 0 l 1
 2 0 l 1
EndSplineSet
EndChar

StartChar: P
Encoding: 80 80 80
Width: 4
Flags: HW
LayerCount: 2
Fore
SplineSet
0 5 m 1
 0 6 l 1
 1 6 l 1
 1 5 l 1
 0 5 l 1
1 5 m 1
 1 6 l 1
 2 6 l 1
 2 5 l 1
 1 5 l 1
2 5 m 1
 2 6 l 1
 3 6 l 1
 3 5 l 1
 2 5 l 1
0 4 m 1
 0 5 l 1
 1 5 l 1
 1 4 l 1
 0 4 l 1
3 4 m 1
 3 5 l 1
 4 5 l 1
 4 4 l 1
 3 4 l 1
0 3 m 1
 0 4 l 1
 1 4 l 1
 1 3 l 1
 0 3 l 1
1 3 m 1
 1 4 l 1
 2 4 l 1
 2 3 l 1
 1 3 l 1
2 3 m 1
 2 4 l 1
 3 4 l 1
 3 3 l 1
 2 3 l 1
3 3 m 1
 3 4 l 1
 4 4 l 1
 4 3 l 1
 3 3 l 1
0 2 m 1
 0 3 l 1
 1 3 l 1
 1 2 l 1
 0 2 l 1
0 1 m 1
 0 2 l 1
 1 2 l 1
 1 1 l 1
 0 1 l 1
0 0 m 1
 0 1 l 1
 1 1 l 1
 1 0 l 1
 0 0 l 1
0 5 m 1
 0 6 l 1
 1 6 l 1
 1 5 l 1
 0 5 l 1
1 5 m 1
 1 6 l 1
 2 6 l 1
 2 5 l 1
 1 5 l 1
2 5 m 1
 2 6 l 1
 3 6 l 1
 3 5 l 1
 2 5 l 1
0 4 m 1
 0 5 l 1
 1 5 l 1
 1 4 l 1
 0 4 l 1
3 4 m 1
 3 5 l 1
 4 5 l 1
 4 4 l 1
 3 4 l 1
0 3 m 1
 0 4 l 1
 1 4 l 1
 1 3 l 1
 0 3 l 1
1 3 m 1
 1 4 l 1
 2 4 l 1
 2 3 l 1
 1 3 l 1
2 3 m 1
 2 4 l 1
 3 4 l 1
 3 3 l 1
 2 3 l 1
3 3 m 1
 3 4 l 1
 4 4 l 1
 4 3 l 1
 3 3 l 1
0 2 m 1
 0 3 l 1
 1 3 l 1
 1 2 l 1
 0 2 l 1
0 1 m 1
 0 2 l 1
 1 2 l 1
 1 1 l 1
 0 1 l 1
0 0 m 1
 0 1 l 1
 1 1 l 1
 1 0 l 1
 0 0 l 1
EndSplineSet
EndChar

StartChar: Q
Encoding: 81 81 81
Width: 4
Flags: HW
LayerCount: 2
Fore
SplineSet
0 5 m 1
 0 6 l 1
 1 6 l 1
 1 5 l 1
 0 5 l 1
1 5 m 1
 1 6 l 1
 2 6 l 1
 2 5 l 1
 1 5 l 1
2 5 m 1
 2 6 l 1
 3 6 l 1
 3 5 l 1
 2 5 l 1
0 4 m 1
 0 5 l 1
 1 5 l 1
 1 4 l 1
 0 4 l 1
3 4 m 1
 3 5 l 1
 4 5 l 1
 4 4 l 1
 3 4 l 1
0 3 m 1
 0 4 l 1
 1 4 l 1
 1 3 l 1
 0 3 l 1
3 3 m 1
 3 4 l 1
 4 4 l 1
 4 3 l 1
 3 3 l 1
0 2 m 1
 0 3 l 1
 1 3 l 1
 1 2 l 1
 0 2 l 1
3 2 m 1
 3 3 l 1
 4 3 l 1
 4 2 l 1
 3 2 l 1
0 1 m 1
 0 2 l 1
 1 2 l 1
 1 1 l 1
 0 1 l 1
2 1 m 1
 2 2 l 1
 3 2 l 1
 3 1 l 1
 2 1 l 1
3 1 m 1
 3 2 l 1
 4 2 l 1
 4 1 l 1
 3 1 l 1
1 0 m 1
 1 1 l 1
 2 1 l 1
 2 0 l 1
 1 0 l 1
2 0 m 1
 2 1 l 1
 3 1 l 1
 3 0 l 1
 2 0 l 1
3 0 m 1
 3 1 l 1
 4 1 l 1
 4 0 l 1
 3 0 l 1
0 5 m 1
 0 6 l 1
 1 6 l 1
 1 5 l 1
 0 5 l 1
1 5 m 1
 1 6 l 1
 2 6 l 1
 2 5 l 1
 1 5 l 1
2 5 m 1
 2 6 l 1
 3 6 l 1
 3 5 l 1
 2 5 l 1
0 4 m 1
 0 5 l 1
 1 5 l 1
 1 4 l 1
 0 4 l 1
3 4 m 1
 3 5 l 1
 4 5 l 1
 4 4 l 1
 3 4 l 1
0 3 m 1
 0 4 l 1
 1 4 l 1
 1 3 l 1
 0 3 l 1
3 3 m 1
 3 4 l 1
 4 4 l 1
 4 3 l 1
 3 3 l 1
0 2 m 1
 0 3 l 1
 1 3 l 1
 1 2 l 1
 0 2 l 1
3 2 m 1
 3 3 l 1
 4 3 l 1
 4 2 l 1
 3 2 l 1
0 1 m 1
 0 2 l 1
 1 2 l 1
 1 1 l 1
 0 1 l 1
2 1 m 1
 2 2 l 1
 3 2 l 1
 3 1 l 1
 2 1 l 1
3 1 m 1
 3 2 l 1
 4 2 l 1
 4 1 l 1
 3 1 l 1
1 0 m 1
 1 1 l 1
 2 1 l 1
 2 0 l 1
 1 0 l 1
2 0 m 1
 2 1 l 1
 3 1 l 1
 3 0 l 1
 2 0 l 1
3 0 m 1
 3 1 l 1
 4 1 l 1
 4 0 l 1
 3 0 l 1
EndSplineSet
EndChar

StartChar: R
Encoding: 82 82 82
Width: 4
Flags: HW
LayerCount: 2
Fore
SplineSet
0 5 m 1
 0 6 l 1
 1 6 l 1
 1 5 l 1
 0 5 l 1
1 5 m 1
 1 6 l 1
 2 6 l 1
 2 5 l 1
 1 5 l 1
2 5 m 1
 2 6 l 1
 3 6 l 1
 3 5 l 1
 2 5 l 1
0 4 m 1
 0 5 l 1
 1 5 l 1
 1 4 l 1
 0 4 l 1
3 4 m 1
 3 5 l 1
 4 5 l 1
 4 4 l 1
 3 4 l 1
0 3 m 1
 0 4 l 1
 1 4 l 1
 1 3 l 1
 0 3 l 1
3 3 m 1
 3 4 l 1
 4 4 l 1
 4 3 l 1
 3 3 l 1
0 2 m 1
 0 3 l 1
 1 3 l 1
 1 2 l 1
 0 2 l 1
1 2 m 1
 1 3 l 1
 2 3 l 1
 2 2 l 1
 1 2 l 1
2 2 m 1
 2 3 l 1
 3 3 l 1
 3 2 l 1
 2 2 l 1
0 1 m 1
 0 2 l 1
 1 2 l 1
 1 1 l 1
 0 1 l 1
3 1 m 1
 3 2 l 1
 4 2 l 1
 4 1 l 1
 3 1 l 1
0 0 m 1
 0 1 l 1
 1 1 l 1
 1 0 l 1
 0 0 l 1
3 0 m 1
 3 1 l 1
 4 1 l 1
 4 0 l 1
 3 0 l 1
0 5 m 1
 0 6 l 1
 1 6 l 1
 1 5 l 1
 0 5 l 1
1 5 m 1
 1 6 l 1
 2 6 l 1
 2 5 l 1
 1 5 l 1
2 5 m 1
 2 6 l 1
 3 6 l 1
 3 5 l 1
 2 5 l 1
0 4 m 1
 0 5 l 1
 1 5 l 1
 1 4 l 1
 0 4 l 1
3 4 m 1
 3 5 l 1
 4 5 l 1
 4 4 l 1
 3 4 l 1
0 3 m 1
 0 4 l 1
 1 4 l 1
 1 3 l 1
 0 3 l 1
3 3 m 1
 3 4 l 1
 4 4 l 1
 4 3 l 1
 3 3 l 1
0 2 m 1
 0 3 l 1
 1 3 l 1
 1 2 l 1
 0 2 l 1
1 2 m 1
 1 3 l 1
 2 3 l 1
 2 2 l 1
 1 2 l 1
2 2 m 1
 2 3 l 1
 3 3 l 1
 3 2 l 1
 2 2 l 1
0 1 m 1
 0 2 l 1
 1 2 l 1
 1 1 l 1
 0 1 l 1
3 1 m 1
 3 2 l 1
 4 2 l 1
 4 1 l 1
 3 1 l 1
0 0 m 1
 0 1 l 1
 1 1 l 1
 1 0 l 1
 0 0 l 1
3 0 m 1
 3 1 l 1
 4 1 l 1
 4 0 l 1
 3 0 l 1
EndSplineSet
EndChar

StartChar: S
Encoding: 83 83 83
Width: 4
Flags: HW
LayerCount: 2
Fore
SplineSet
1 5 m 1
 1 6 l 1
 2 6 l 1
 2 5 l 1
 1 5 l 1
2 5 m 1
 2 6 l 1
 3 6 l 1
 3 5 l 1
 2 5 l 1
3 5 m 1
 3 6 l 1
 4 6 l 1
 4 5 l 1
 3 5 l 1
0 4 m 1
 0 5 l 1
 1 5 l 1
 1 4 l 1
 0 4 l 1
0 3 m 1
 0 4 l 1
 1 4 l 1
 1 3 l 1
 0 3 l 1
1 3 m 1
 1 4 l 1
 2 4 l 1
 2 3 l 1
 1 3 l 1
2 3 m 1
 2 4 l 1
 3 4 l 1
 3 3 l 1
 2 3 l 1
3 2 m 1
 3 3 l 1
 4 3 l 1
 4 2 l 1
 3 2 l 1
3 1 m 1
 3 2 l 1
 4 2 l 1
 4 1 l 1
 3 1 l 1
0 0 m 1
 0 1 l 1
 1 1 l 1
 1 0 l 1
 0 0 l 1
1 0 m 1
 1 1 l 1
 2 1 l 1
 2 0 l 1
 1 0 l 1
2 0 m 1
 2 1 l 1
 3 1 l 1
 3 0 l 1
 2 0 l 1
1 5 m 1
 1 6 l 1
 2 6 l 1
 2 5 l 1
 1 5 l 1
2 5 m 1
 2 6 l 1
 3 6 l 1
 3 5 l 1
 2 5 l 1
3 5 m 1
 3 6 l 1
 4 6 l 1
 4 5 l 1
 3 5 l 1
0 4 m 1
 0 5 l 1
 1 5 l 1
 1 4 l 1
 0 4 l 1
0 3 m 1
 0 4 l 1
 1 4 l 1
 1 3 l 1
 0 3 l 1
1 3 m 1
 1 4 l 1
 2 4 l 1
 2 3 l 1
 1 3 l 1
2 3 m 1
 2 4 l 1
 3 4 l 1
 3 3 l 1
 2 3 l 1
3 2 m 1
 3 3 l 1
 4 3 l 1
 4 2 l 1
 3 2 l 1
3 1 m 1
 3 2 l 1
 4 2 l 1
 4 1 l 1
 3 1 l 1
0 0 m 1
 0 1 l 1
 1 1 l 1
 1 0 l 1
 0 0 l 1
1 0 m 1
 1 1 l 1
 2 1 l 1
 2 0 l 1
 1 0 l 1
2 0 m 1
 2 1 l 1
 3 1 l 1
 3 0 l 1
 2 0 l 1
EndSplineSet
EndChar

StartChar: T
Encoding: 84 84 84
Width: 4
Flags: HW
LayerCount: 2
Fore
SplineSet
0 5 m 1
 0 6 l 1
 1 6 l 1
 1 5 l 1
 0 5 l 1
1 5 m 1
 1 6 l 1
 2 6 l 1
 2 5 l 1
 1 5 l 1
2 5 m 1
 2 6 l 1
 3 6 l 1
 3 5 l 1
 2 5 l 1
3 5 m 1
 3 6 l 1
 4 6 l 1
 4 5 l 1
 3 5 l 1
1 4 m 1
 1 5 l 1
 2 5 l 1
 2 4 l 1
 1 4 l 1
1 3 m 1
 1 4 l 1
 2 4 l 1
 2 3 l 1
 1 3 l 1
1 2 m 1
 1 3 l 1
 2 3 l 1
 2 2 l 1
 1 2 l 1
1 1 m 1
 1 2 l 1
 2 2 l 1
 2 1 l 1
 1 1 l 1
1 0 m 1
 1 1 l 1
 2 1 l 1
 2 0 l 1
 1 0 l 1
0 5 m 1
 0 6 l 1
 1 6 l 1
 1 5 l 1
 0 5 l 1
1 5 m 1
 1 6 l 1
 2 6 l 1
 2 5 l 1
 1 5 l 1
2 5 m 1
 2 6 l 1
 3 6 l 1
 3 5 l 1
 2 5 l 1
3 5 m 1
 3 6 l 1
 4 6 l 1
 4 5 l 1
 3 5 l 1
1 4 m 1
 1 5 l 1
 2 5 l 1
 2 4 l 1
 1 4 l 1
1 3 m 1
 1 4 l 1
 2 4 l 1
 2 3 l 1
 1 3 l 1
1 2 m 1
 1 3 l 1
 2 3 l 1
 2 2 l 1
 1 2 l 1
1 1 m 1
 1 2 l 1
 2 2 l 1
 2 1 l 1
 1 1 l 1
1 0 m 1
 1 1 l 1
 2 1 l 1
 2 0 l 1
 1 0 l 1
EndSplineSet
EndChar

StartChar: U
Encoding: 85 85 85
Width: 4
Flags: HW
LayerCount: 2
Fore
SplineSet
0 5 m 1
 0 6 l 1
 1 6 l 1
 1 5 l 1
 0 5 l 1
3 5 m 1
 3 6 l 1
 4 6 l 1
 4 5 l 1
 3 5 l 1
0 4 m 1
 0 5 l 1
 1 5 l 1
 1 4 l 1
 0 4 l 1
3 4 m 1
 3 5 l 1
 4 5 l 1
 4 4 l 1
 3 4 l 1
0 3 m 1
 0 4 l 1
 1 4 l 1
 1 3 l 1
 0 3 l 1
3 3 m 1
 3 4 l 1
 4 4 l 1
 4 3 l 1
 3 3 l 1
0 2 m 1
 0 3 l 1
 1 3 l 1
 1 2 l 1
 0 2 l 1
3 2 m 1
 3 3 l 1
 4 3 l 1
 4 2 l 1
 3 2 l 1
0 1 m 1
 0 2 l 1
 1 2 l 1
 1 1 l 1
 0 1 l 1
3 1 m 1
 3 2 l 1
 4 2 l 1
 4 1 l 1
 3 1 l 1
1 0 m 1
 1 1 l 1
 2 1 l 1
 2 0 l 1
 1 0 l 1
2 0 m 1
 2 1 l 1
 3 1 l 1
 3 0 l 1
 2 0 l 1
3 0 m 1
 3 1 l 1
 4 1 l 1
 4 0 l 1
 3 0 l 1
0 5 m 1
 0 6 l 1
 1 6 l 1
 1 5 l 1
 0 5 l 1
3 5 m 1
 3 6 l 1
 4 6 l 1
 4 5 l 1
 3 5 l 1
0 4 m 1
 0 5 l 1
 1 5 l 1
 1 4 l 1
 0 4 l 1
3 4 m 1
 3 5 l 1
 4 5 l 1
 4 4 l 1
 3 4 l 1
0 3 m 1
 0 4 l 1
 1 4 l 1
 1 3 l 1
 0 3 l 1
3 3 m 1
 3 4 l 1
 4 4 l 1
 4 3 l 1
 3 3 l 1
0 2 m 1
 0 3 l 1
 1 3 l 1
 1 2 l 1
 0 2 l 1
3 2 m 1
 3 3 l 1
 4 3 l 1
 4 2 l 1
 3 2 l 1
0 1 m 1
 0 2 l 1
 1 2 l 1
 1 1 l 1
 0 1 l 1
3 1 m 1
 3 2 l 1
 4 2 l 1
 4 1 l 1
 3 1 l 1
1 0 m 1
 1 1 l 1
 2 1 l 1
 2 0 l 1
 1 0 l 1
2 0 m 1
 2 1 l 1
 3 1 l 1
 3 0 l 1
 2 0 l 1
3 0 m 1
 3 1 l 1
 4 1 l 1
 4 0 l 1
 3 0 l 1
EndSplineSet
EndChar

StartChar: V
Encoding: 86 86 86
Width: 4
Flags: HW
LayerCount: 2
Fore
SplineSet
0 5 m 1
 0 6 l 1
 1 6 l 1
 1 5 l 1
 0 5 l 1
3 5 m 1
 3 6 l 1
 4 6 l 1
 4 5 l 1
 3 5 l 1
0 4 m 1
 0 5 l 1
 1 5 l 1
 1 4 l 1
 0 4 l 1
3 4 m 1
 3 5 l 1
 4 5 l 1
 4 4 l 1
 3 4 l 1
0 3 m 1
 0 4 l 1
 1 4 l 1
 1 3 l 1
 0 3 l 1
3 3 m 1
 3 4 l 1
 4 4 l 1
 4 3 l 1
 3 3 l 1
0 2 m 1
 0 3 l 1
 1 3 l 1
 1 2 l 1
 0 2 l 1
3 2 m 1
 3 3 l 1
 4 3 l 1
 4 2 l 1
 3 2 l 1
1 1 m 1
 1 2 l 1
 2 2 l 1
 2 1 l 1
 1 1 l 1
3 1 m 1
 3 2 l 1
 4 2 l 1
 4 1 l 1
 3 1 l 1
2 0 m 1
 2 1 l 1
 3 1 l 1
 3 0 l 1
 2 0 l 1
0 5 m 1
 0 6 l 1
 1 6 l 1
 1 5 l 1
 0 5 l 1
3 5 m 1
 3 6 l 1
 4 6 l 1
 4 5 l 1
 3 5 l 1
0 4 m 1
 0 5 l 1
 1 5 l 1
 1 4 l 1
 0 4 l 1
3 4 m 1
 3 5 l 1
 4 5 l 1
 4 4 l 1
 3 4 l 1
0 3 m 1
 0 4 l 1
 1 4 l 1
 1 3 l 1
 0 3 l 1
3 3 m 1
 3 4 l 1
 4 4 l 1
 4 3 l 1
 3 3 l 1
0 2 m 1
 0 3 l 1
 1 3 l 1
 1 2 l 1
 0 2 l 1
3 2 m 1
 3 3 l 1
 4 3 l 1
 4 2 l 1
 3 2 l 1
1 1 m 1
 1 2 l 1
 2 2 l 1
 2 1 l 1
 1 1 l 1
3 1 m 1
 3 2 l 1
 4 2 l 1
 4 1 l 1
 3 1 l 1
2 0 m 1
 2 1 l 1
 3 1 l 1
 3 0 l 1
 2 0 l 1
EndSplineSet
EndChar

StartChar: W
Encoding: 87 87 87
Width: 4
Flags: HW
LayerCount: 2
Fore
SplineSet
0 5 m 1
 0 6 l 1
 1 6 l 1
 1 5 l 1
 0 5 l 1
3 5 m 1
 3 6 l 1
 4 6 l 1
 4 5 l 1
 3 5 l 1
0 4 m 1
 0 5 l 1
 1 5 l 1
 1 4 l 1
 0 4 l 1
3 4 m 1
 3 5 l 1
 4 5 l 1
 4 4 l 1
 3 4 l 1
0 3 m 1
 0 4 l 1
 1 4 l 1
 1 3 l 1
 0 3 l 1
3 3 m 1
 3 4 l 1
 4 4 l 1
 4 3 l 1
 3 3 l 1
0 2 m 1
 0 3 l 1
 1 3 l 1
 1 2 l 1
 0 2 l 1
1 2 m 1
 1 3 l 1
 2 3 l 1
 2 2 l 1
 1 2 l 1
3 2 m 1
 3 3 l 1
 4 3 l 1
 4 2 l 1
 3 2 l 1
0 1 m 1
 0 2 l 1
 1 2 l 1
 1 1 l 1
 0 1 l 1
1 1 m 1
 1 2 l 1
 2 2 l 1
 2 1 l 1
 1 1 l 1
2 1 m 1
 2 2 l 1
 3 2 l 1
 3 1 l 1
 2 1 l 1
3 1 m 1
 3 2 l 1
 4 2 l 1
 4 1 l 1
 3 1 l 1
0 0 m 1
 0 1 l 1
 1 1 l 1
 1 0 l 1
 0 0 l 1
2 0 m 1
 2 1 l 1
 3 1 l 1
 3 0 l 1
 2 0 l 1
3 0 m 1
 3 1 l 1
 4 1 l 1
 4 0 l 1
 3 0 l 1
0 5 m 1
 0 6 l 1
 1 6 l 1
 1 5 l 1
 0 5 l 1
3 5 m 1
 3 6 l 1
 4 6 l 1
 4 5 l 1
 3 5 l 1
0 4 m 1
 0 5 l 1
 1 5 l 1
 1 4 l 1
 0 4 l 1
3 4 m 1
 3 5 l 1
 4 5 l 1
 4 4 l 1
 3 4 l 1
0 3 m 1
 0 4 l 1
 1 4 l 1
 1 3 l 1
 0 3 l 1
3 3 m 1
 3 4 l 1
 4 4 l 1
 4 3 l 1
 3 3 l 1
0 2 m 1
 0 3 l 1
 1 3 l 1
 1 2 l 1
 0 2 l 1
1 2 m 1
 1 3 l 1
 2 3 l 1
 2 2 l 1
 1 2 l 1
3 2 m 1
 3 3 l 1
 4 3 l 1
 4 2 l 1
 3 2 l 1
0 1 m 1
 0 2 l 1
 1 2 l 1
 1 1 l 1
 0 1 l 1
1 1 m 1
 1 2 l 1
 2 2 l 1
 2 1 l 1
 1 1 l 1
2 1 m 1
 2 2 l 1
 3 2 l 1
 3 1 l 1
 2 1 l 1
3 1 m 1
 3 2 l 1
 4 2 l 1
 4 1 l 1
 3 1 l 1
0 0 m 1
 0 1 l 1
 1 1 l 1
 1 0 l 1
 0 0 l 1
2 0 m 1
 2 1 l 1
 3 1 l 1
 3 0 l 1
 2 0 l 1
3 0 m 1
 3 1 l 1
 4 1 l 1
 4 0 l 1
 3 0 l 1
EndSplineSet
EndChar

StartChar: X
Encoding: 88 88 88
Width: 4
Flags: HW
LayerCount: 2
Fore
SplineSet
0 5 m 1
 0 6 l 1
 1 6 l 1
 1 5 l 1
 0 5 l 1
3 5 m 1
 3 6 l 1
 4 6 l 1
 4 5 l 1
 3 5 l 1
0 4 m 1
 0 5 l 1
 1 5 l 1
 1 4 l 1
 0 4 l 1
3 4 m 1
 3 5 l 1
 4 5 l 1
 4 4 l 1
 3 4 l 1
1 3 m 1
 1 4 l 1
 2 4 l 1
 2 3 l 1
 1 3 l 1
2 3 m 1
 2 4 l 1
 3 4 l 1
 3 3 l 1
 2 3 l 1
1 2 m 1
 1 3 l 1
 2 3 l 1
 2 2 l 1
 1 2 l 1
2 2 m 1
 2 3 l 1
 3 3 l 1
 3 2 l 1
 2 2 l 1
0 1 m 1
 0 2 l 1
 1 2 l 1
 1 1 l 1
 0 1 l 1
3 1 m 1
 3 2 l 1
 4 2 l 1
 4 1 l 1
 3 1 l 1
0 0 m 1
 0 1 l 1
 1 1 l 1
 1 0 l 1
 0 0 l 1
3 0 m 1
 3 1 l 1
 4 1 l 1
 4 0 l 1
 3 0 l 1
0 5 m 1
 0 6 l 1
 1 6 l 1
 1 5 l 1
 0 5 l 1
3 5 m 1
 3 6 l 1
 4 6 l 1
 4 5 l 1
 3 5 l 1
0 4 m 1
 0 5 l 1
 1 5 l 1
 1 4 l 1
 0 4 l 1
3 4 m 1
 3 5 l 1
 4 5 l 1
 4 4 l 1
 3 4 l 1
1 3 m 1
 1 4 l 1
 2 4 l 1
 2 3 l 1
 1 3 l 1
2 3 m 1
 2 4 l 1
 3 4 l 1
 3 3 l 1
 2 3 l 1
1 2 m 1
 1 3 l 1
 2 3 l 1
 2 2 l 1
 1 2 l 1
2 2 m 1
 2 3 l 1
 3 3 l 1
 3 2 l 1
 2 2 l 1
0 1 m 1
 0 2 l 1
 1 2 l 1
 1 1 l 1
 0 1 l 1
3 1 m 1
 3 2 l 1
 4 2 l 1
 4 1 l 1
 3 1 l 1
0 0 m 1
 0 1 l 1
 1 1 l 1
 1 0 l 1
 0 0 l 1
3 0 m 1
 3 1 l 1
 4 1 l 1
 4 0 l 1
 3 0 l 1
EndSplineSet
EndChar

StartChar: Y
Encoding: 89 89 89
Width: 4
Flags: HW
LayerCount: 2
Fore
SplineSet
0 5 m 1
 0 6 l 1
 1 6 l 1
 1 5 l 1
 0 5 l 1
3 5 m 1
 3 6 l 1
 4 6 l 1
 4 5 l 1
 3 5 l 1
0 4 m 1
 0 5 l 1
 1 5 l 1
 1 4 l 1
 0 4 l 1
3 4 m 1
 3 5 l 1
 4 5 l 1
 4 4 l 1
 3 4 l 1
0 3 m 1
 0 4 l 1
 1 4 l 1
 1 3 l 1
 0 3 l 1
1 3 m 1
 1 4 l 1
 2 4 l 1
 2 3 l 1
 1 3 l 1
2 3 m 1
 2 4 l 1
 3 4 l 1
 3 3 l 1
 2 3 l 1
3 3 m 1
 3 4 l 1
 4 4 l 1
 4 3 l 1
 3 3 l 1
1 2 m 1
 1 3 l 1
 2 3 l 1
 2 2 l 1
 1 2 l 1
1 1 m 1
 1 2 l 1
 2 2 l 1
 2 1 l 1
 1 1 l 1
1 0 m 1
 1 1 l 1
 2 1 l 1
 2 0 l 1
 1 0 l 1
0 5 m 1
 0 6 l 1
 1 6 l 1
 1 5 l 1
 0 5 l 1
3 5 m 1
 3 6 l 1
 4 6 l 1
 4 5 l 1
 3 5 l 1
0 4 m 1
 0 5 l 1
 1 5 l 1
 1 4 l 1
 0 4 l 1
3 4 m 1
 3 5 l 1
 4 5 l 1
 4 4 l 1
 3 4 l 1
0 3 m 1
 0 4 l 1
 1 4 l 1
 1 3 l 1
 0 3 l 1
1 3 m 1
 1 4 l 1
 2 4 l 1
 2 3 l 1
 1 3 l 1
2 3 m 1
 2 4 l 1
 3 4 l 1
 3 3 l 1
 2 3 l 1
3 3 m 1
 3 4 l 1
 4 4 l 1
 4 3 l 1
 3 3 l 1
1 2 m 1
 1 3 l 1
 2 3 l 1
 2 2 l 1
 1 2 l 1
1 1 m 1
 1 2 l 1
 2 2 l 1
 2 1 l 1
 1 1 l 1
1 0 m 1
 1 1 l 1
 2 1 l 1
 2 0 l 1
 1 0 l 1
EndSplineSet
EndChar

StartChar: Z
Encoding: 90 90 90
Width: 4
Flags: HW
LayerCount: 2
Fore
SplineSet
1 5 m 1
 1 6 l 1
 2 6 l 1
 2 5 l 1
 1 5 l 1
2 5 m 1
 2 6 l 1
 3 6 l 1
 3 5 l 1
 2 5 l 1
3 5 m 1
 3 6 l 1
 4 6 l 1
 4 5 l 1
 3 5 l 1
3 4 m 1
 3 5 l 1
 4 5 l 1
 4 4 l 1
 3 4 l 1
2 3 m 1
 2 4 l 1
 3 4 l 1
 3 3 l 1
 2 3 l 1
1 2 m 1
 1 3 l 1
 2 3 l 1
 2 2 l 1
 1 2 l 1
0 1 m 1
 0 2 l 1
 1 2 l 1
 1 1 l 1
 0 1 l 1
0 0 m 1
 0 1 l 1
 1 1 l 1
 1 0 l 1
 0 0 l 1
1 0 m 1
 1 1 l 1
 2 1 l 1
 2 0 l 1
 1 0 l 1
2 0 m 1
 2 1 l 1
 3 1 l 1
 3 0 l 1
 2 0 l 1
3 0 m 1
 3 1 l 1
 4 1 l 1
 4 0 l 1
 3 0 l 1
1 5 m 1
 1 6 l 1
 2 6 l 1
 2 5 l 1
 1 5 l 1
2 5 m 1
 2 6 l 1
 3 6 l 1
 3 5 l 1
 2 5 l 1
3 5 m 1
 3 6 l 1
 4 6 l 1
 4 5 l 1
 3 5 l 1
3 4 m 1
 3 5 l 1
 4 5 l 1
 4 4 l 1
 3 4 l 1
2 3 m 1
 2 4 l 1
 3 4 l 1
 3 3 l 1
 2 3 l 1
1 2 m 1
 1 3 l 1
 2 3 l 1
 2 2 l 1
 1 2 l 1
0 1 m 1
 0 2 l 1
 1 2 l 1
 1 1 l 1
 0 1 l 1
0 0 m 1
 0 1 l 1
 1 1 l 1
 1 0 l 1
 0 0 l 1
1 0 m 1
 1 1 l 1
 2 1 l 1
 2 0 l 1
 1 0 l 1
2 0 m 1
 2 1 l 1
 3 1 l 1
 3 0 l 1
 2 0 l 1
3 0 m 1
 3 1 l 1
 4 1 l 1
 4 0 l 1
 3 0 l 1
EndSplineSet
EndChar

